<?xml version="1.0" encoding="utf-8" ?><svg xmlns="http://www.w3.org/2000/svg" xmlns:xlink="http://www.w3.org/1999/xlink" width="1024" height="1024" viewBox="0 0 1024 1024"><path fill="#4A251E" transform="scale(2 2)" d="M241.9 43.9353C246.415 43.8424 268.02 43.4291 270.495 44.4144C277.816 47.3293 282.062 77.539 285.482 85.7369C290.355 85.7273 312.91 85.0794 315.945 86.2833C319.039 87.5109 344.818 108.697 348.489 112.02C357.323 120.013 362.901 129.808 367.875 140.563C371.167 137.571 373.761 134.675 376.796 131.479L440.388 64.9106C441.243 64.0077 444.062 60.8552 445.441 61.3406C451.223 63.377 441.177 76.7283 439.025 80.5112L393.81 160.014C392.192 162.92 388.725 168.334 387.624 171.163L387.484 171.53C388.882 176.949 390.585 182.025 391.63 187.559C419.427 192.821 418.237 200.262 418.241 222.856L418.251 279.279C418.255 295.859 416.882 295.069 409.057 310.819C399.834 329.384 385.198 394.583 381.27 398.62C379.542 400.396 376.77 401.873 374.704 403.261L303.524 449.809C289.956 458.539 286.764 464.913 270.875 464.767L244.048 464.776C239.854 464.777 234.987 465.281 230.883 464.52C225.592 463.539 131.647 399.667 131.134 398.838C129.12 395.582 126.203 383.391 124.995 379.231L110.423 328.505C107.6 318.752 102.829 310.151 98.8178 300.861C93.1633 287.764 93.8594 290.723 93.8726 276.001L93.8656 219.612C93.8315 198.842 93.6533 192.176 119.646 187.559C120.426 182.232 122.584 174.464 124.016 169.308C113.943 148.008 64.0768 70.1138 64.2823 63.9579C64.6182 53.8981 82.2376 76.0649 83.4216 77.2788L134.133 130.231C136.783 133.007 141.538 137.689 143.599 140.563C159.212 109.807 167.866 108.277 193.293 87.6027C196.545 84.9585 202.038 85.7116 206.179 85.7164L225.95 85.7369C227.614 78.0877 233.664 45.642 241.9 43.9353ZM412.957 102.237C412.615 103.223 412.751 102.9 411.801 103.641L411.961 103.88C414.901 102.613 416.748 106.549 418.239 105.69C422.515 99.2306 428.652 88.6683 432.157 81.6654C429.511 84.2147 413.898 99.8266 412.957 102.237ZM89.6136 98.4424C91.5797 99.9176 92.6453 103.432 94.3208 105.505L94.4377 105.373C91.7488 93.0543 102.154 107.676 99.9576 102.237C95.252 96.1972 85.9132 87.5778 80.2405 82.1596C83.3425 87.57 86.4333 93.0905 89.6136 98.4424ZM378.596 137.725C380.283 137.677 400.153 119.134 402.631 115.371C402.277 114.677 402.048 114.054 401.454 113.571L387.669 128.249C384.843 131.207 381.257 134.724 378.596 137.725Z"/><path fill="#09EE00" transform="scale(2 2)" d="M157.234 227.172C166.452 226.552 178.244 228.648 187.532 229.474L207.805 231.2C212.053 231.554 217.141 231.862 221.301 232.542C227 239.058 238.135 264.452 244.39 272.378C245.724 274.069 263.47 273.261 265.982 273.068C269.483 272.797 274.007 262.555 275.613 259.552L284.325 243.54C286.221 240.027 288.256 235.885 290.317 232.542C309.65 229.846 334.529 227.828 353.697 227.172L353.697 289.383L349.887 291.871C340.406 298.037 299.004 322.03 293.15 328.631C291.292 328.7 289.612 328.671 287.751 328.631C285.06 324.134 282.413 319.689 279.583 315.275C275.438 315.038 268.837 315.262 264.458 315.264L233.523 315.275C229.492 318.763 227.457 324.257 223.929 328.631L222.999 328.413C216.985 327.01 164.213 293.832 157.234 289.383C157.235 268.827 156.968 247.676 157.234 227.172Z"/><path fill="#F3EADE" transform="scale(2 2)" d="M180.575 185.421L330.331 185.421C331.816 194.046 334.815 205.415 336.939 213.895C340.833 215.89 351.046 218.809 353.623 220.764L353.563 221.057C350.673 222.762 299.914 225.839 291.725 227.172C287.459 227.172 286.331 228.773 284.388 232.213C278 243.52 271.919 256.575 265.259 267.329L265.059 267.65C259.547 267.838 252.888 267.656 247.289 267.65C245.415 263.63 227.399 230.422 225.248 228.436C222.849 226.22 212.399 226.156 209.215 225.881L172.098 222.652C168.11 222.291 163.165 221.759 159.209 221.926C164.873 217.414 171.127 215.687 177.12 212.26C177.843 203.936 179.65 194.074 180.575 185.421Z"/><path fill="#4A251E" transform="scale(2 2)" d="M227.592 192.412C229.033 192.259 233.278 192.388 234.907 192.391L270.783 192.422C275.533 192.403 282.427 191.771 286.936 193.338C295.743 196.4 286.159 210.495 283.908 214.918L269.033 244.099C266.867 248.602 263.376 256.217 260.763 260.262C257.809 260.315 254.722 260.267 251.757 260.262C249.117 256.631 247.008 251.929 244.926 247.894L225.835 210.602C223.008 205.068 215.954 194.237 227.592 192.412Z"/><path fill="#BE7D68" transform="scale(2 2)" d="M227.592 197.742C233.842 197.705 283.148 197.352 284.474 198.049C287.305 199.539 282.195 205.973 281.004 208.288C276.198 217.627 271.782 227.065 266.866 236.338C264.053 241.478 260.304 255.1 254.895 254.46C253.002 252.7 241.692 229.246 239.805 225.558L230.884 208.107C229.26 204.909 225.279 200.146 227.592 197.742Z"/><path fill="#F3EADE" transform="scale(2 2)" d="M235.421 320.503L276.599 320.503C283.082 332.487 281.214 333.684 293.733 333.605C288.02 363.67 283.59 394.407 277.651 424.459C277.337 426.046 274.009 429.822 272.827 431.25L270.056 434.534C260.636 434.379 250.836 434.526 241.386 434.534C229.15 418.824 232.622 419.251 229.208 399.081L217.935 332.875C230.048 335.466 229.852 330.013 235.421 320.503Z"/><path fill="#9CC7DF" transform="scale(2 2)" d="M397.254 288.12L397.466 288.366C396.876 297.395 397.418 307.497 397.244 316.612C397.013 328.655 396.867 326.34 393.539 338.505C388.718 356.123 380.729 377.422 377.7 395.131C357.247 406.884 330.718 425.079 311.65 438.81L311.352 438.926L311.06 438.75C311.012 434.527 314.806 420.75 315.836 416.173L324.28 378.487C326.669 368.211 329.686 356.429 331.366 346.198C335.121 342.122 342.841 337.284 347.339 333.695C353.404 328.855 379.549 310.83 383.018 306.417C383.346 303.538 383.181 300.571 383.018 297.684C386.383 294.979 393.491 289.658 397.254 288.12Z"/><path fill="#4A251E" transform="scale(2 2)" d="M367.875 350.693C372.884 350.978 375.885 356.746 373.381 359.554C370.426 362.619 347.059 379.599 343.606 380.542C339.139 380.082 335.298 375.426 338.205 371.131C339.876 368.661 363.62 351.502 367.875 350.693Z"/><path fill="#BE7D68" transform="scale(2 2)" d="M367.875 355.565C369.02 355.26 369.423 355.694 369.753 356.751C369.319 359.422 346.998 373.729 343.606 376.274L342.997 376.418C341.832 375.926 341.301 374.834 341.619 373.603C343.637 371.131 363.333 357.051 367.875 355.565Z"/><path fill="#4A251E" transform="scale(2 2)" d="M366.608 330.789C372.552 330.202 377.158 336.972 371.713 340.788C365.487 345.153 349.615 357.989 343.606 360.61C338.835 361.789 335.617 357.283 336.788 352.886C337.362 350.732 360.926 333.325 366.608 330.789Z"/><path fill="#BE7D68" transform="scale(2 2)" d="M367.875 334.695C375.548 336.586 344.733 355.336 342.51 356.827C341.598 356.518 340.475 355.353 340.951 354.311C341.305 353.537 365.811 335.699 367.875 334.695Z"/><path fill="#9CC7DF" transform="scale(2 2)" d="M115.243 288.12C118.536 290.075 126.146 297.398 129.289 300.206C129.619 309.948 130.626 308.138 138.513 314.214L171.297 339.507C174.28 341.826 177.246 344.439 180.575 346.198C180.944 350.542 181.992 354.11 183.021 358.308L186.666 373.198C187.999 378.788 202.028 438.566 201.474 439.873C190.469 431.47 137.222 398.72 135.788 395.888C133.948 392.256 131.911 383.325 130.802 379.501L116.828 330.95C113.524 319.124 115.56 300.878 115.243 288.12Z"/><path fill="#4A251E" transform="scale(2 2)" d="M142.915 329.722C144.373 329.867 172.942 351.234 175.499 354.015C177.029 355.68 174.575 360.343 171.277 361.572C167.343 361.49 144.843 343.922 140.642 340.413C135.73 336.309 137.831 332.001 142.915 329.722Z"/><path fill="#F3EADE" transform="scale(2 2)" d="M142.915 335.972C143.972 335.963 168.749 353.035 170.127 355.565C168.36 355.308 145.76 339.094 142.915 335.972Z"/><path fill="#4A251E" transform="scale(2 2)" d="M142.915 350.693C145.567 351.254 174.695 372.815 175.537 374.761C176.733 377.522 173.644 381.076 171.277 382.001C167.554 381.913 165.383 379.528 162.453 377.365L150.281 368.204C147.744 366.289 140.39 361.162 138.672 359.313C137.238 354.754 138.799 352.669 142.915 350.693Z"/><path fill="#F3EADE" transform="scale(2 2)" d="M142.915 356.827C146.177 357.26 170.017 376.042 170.127 376.274C168.407 375.94 145.549 359.809 142.915 356.827Z"/><path fill="#9CC7DF" transform="scale(2 2)" d="M298.066 91.2382C301.649 91.2559 310.511 90.5238 313.424 91.6635C317.501 93.259 340.775 112.603 345.176 116.645C353.656 124.433 359.382 134.532 363.941 145.012C362.414 146.906 359.91 149.355 358.154 151.167L348.16 161.471C346.152 163.537 342.611 166.855 341.358 169.308C337.107 172.62 334.188 176.296 330.331 180.029C328.394 179.842 323.334 180.003 321.175 180.006L300.65 180.036C297.241 180.048 293.094 180.262 289.805 180.029L289.807 147.639C289.807 127.562 288.71 111.237 285.482 91.2382L298.066 91.2382Z"/><path fill="#9CC7DF" transform="scale(2 2)" d="M198.248 91.2382C207.02 91.3954 216.257 91.2599 225.059 91.2382C224.892 95.5591 224.031 100.859 223.386 105.176C221.076 120.628 220.87 135.494 220.867 151.052L220.872 180.029L180.575 180.029L178.162 177.319L148.051 145.012C155.425 124.534 167.556 114.26 184.094 101.827C187.849 99.004 194.454 93.5371 198.248 91.2382Z"/><path fill="#F3EADE" transform="scale(2 2)" d="M300.252 328.631C303.096 329.343 323.326 343.68 326.625 346.198C326.249 347.039 325.722 348.189 325.5 349.068C317.842 379.361 310.823 411.502 304.836 442.247C300.764 445.284 297.163 447.228 293.15 450.713C290.004 452.067 284.739 455.903 281.444 457.875C279.04 452 276.645 444.265 274.725 438.197C280.421 428.17 282.249 432.774 284.314 419.738L296.547 349.07C297.707 342.791 298.348 334.556 300.252 328.631Z"/><path fill="#F3EADE" transform="scale(2 2)" d="M211.69 328.631C212.4 329.795 214.098 341.619 214.454 343.751L226.471 416.232C229.098 433.99 231.218 426.359 236.294 438.197C235.76 442.458 231.429 453.39 229.76 457.875C226.343 455.469 222.4 453.025 218.869 450.713C215.183 448.338 211.655 446.064 208.18 443.383C205.359 432.093 202.693 419.222 200.135 407.772L192.3 373.404C190.374 364.558 187.614 354.782 186.015 346.198C194.14 340.299 204.097 334.715 211.69 328.631Z"/><path fill="#F3EADE" transform="scale(2 2)" d="M242.594 52.8822C242.563 51.6147 242.555 50.4258 243.952 49.9154C245.643 49.2974 267.023 47.6295 268.41 52.1796C268.552 54.1002 268.293 58.9116 268.302 61.2393L268.565 82.3513C268.905 101.09 271.372 137.316 268.41 155.195C260.223 155.285 249.938 155.781 241.9 155.195C241.586 152.298 241.887 146.667 241.893 143.427L241.89 76.7969C241.889 70.945 241.558 57.959 242.594 52.8822Z"/><path fill="white" transform="scale(2 2)" d="M242.594 52.8822C242.563 51.6147 242.555 50.4258 243.952 49.9154C245.643 49.2974 267.023 47.6295 268.41 52.1796C268.308 52.8824 268.133 54.4807 267.903 55.0632C267.474 49.9962 263.516 52.5761 266.061 50.3559C263.613 49.3104 251.416 49.5247 248.652 50.0999L248.972 50.1349C249.772 50.2274 250.185 50.194 250.839 50.6495L250.855 51.1059C248.495 52.0096 245.208 51.6756 242.594 52.1796C242.785 54.8916 242.849 59.2059 242.62 61.9503C242.586 59.9939 242.771 54.3886 242.594 52.8822Z"/><path fill="#F3EADE" transform="scale(2 2)" d="M89.6136 98.4424C91.5797 99.9176 92.6453 103.432 94.3208 105.505L94.4377 105.373C91.7488 93.0543 102.154 107.676 99.9576 102.237C104.666 107.086 111.404 113.713 115.753 118.653C122.15 124.722 129.996 133.83 136.223 140.382L161.767 167.652C166.579 172.831 171.154 177.519 175.848 182.899L173.637 198.298C173.226 201.231 172.661 205.985 171.907 208.732C167.048 211.066 162.203 213.839 157.234 215.762C155.043 209.747 147.002 197.04 143.443 190.961L116.069 144.526C113.681 140.564 106.361 129.525 105.673 125.908C100.122 119.309 93.999 106.332 89.6136 98.4424Z"/><path fill="white" transform="scale(2 2)" d="M89.6136 98.4424C91.5797 99.9176 92.6453 103.432 94.3208 105.505L94.4377 105.373C91.7488 93.0543 102.154 107.676 99.9576 102.237C104.666 107.086 111.404 113.713 115.753 118.653C108.855 116.011 108.433 105.775 99.9576 110.962C100.301 115.729 106.659 120.116 106.024 124.93L105.588 125.316L105.673 125.908C100.122 119.309 93.999 106.332 89.6136 98.4424Z"/><path fill="#F3EADE" transform="scale(2 2)" d="M412.957 102.237C412.615 103.223 412.751 102.9 411.801 103.641L411.961 103.88C414.901 102.613 416.748 106.549 418.239 105.69C416.665 109.269 414.515 112.748 412.571 116.164L401.968 134.481C390.102 154.979 378.069 175.407 366.441 196.029C363.255 201.678 357.623 209.713 356.23 215.762C351.586 213.783 346.124 211.441 341.358 209.785C339.151 200.967 336.833 191.799 334.984 182.899C339.675 177.382 345.357 172.502 350.349 167.226L371.659 144.894C373.166 143.34 377.147 138.785 378.596 137.725C380.283 137.677 400.153 119.134 402.631 115.371C402.277 114.677 402.048 114.054 401.454 113.571C403.075 111.251 410.568 103.838 412.957 102.237Z"/><path fill="#F3EADE" transform="scale(2 2)" d="M273.734 61.5236C274.719 64.5322 275.239 68.3974 275.969 71.5616C281.9 97.263 284.42 123.39 284.428 149.703L284.424 180.029L226.287 180.029L226.279 149.826C226.279 138.947 227.962 95.4568 232.156 85.7369C232.825 80.5794 234.576 71.0186 236.294 65.9559C236.451 72.9788 236.292 79.5139 236.294 86.5096C236.413 87.6491 236.314 90.7106 236.31 91.9544L236.284 138.379C236.283 146.431 233.432 160.758 244.355 160.758C250.513 160.758 256.774 160.588 262.941 160.773C275.821 161.452 274.727 155.054 274.733 145.173L274.735 131.129C274.729 115.956 274.919 100.649 274.563 85.4973C274.372 77.3653 273.533 69.9204 273.734 61.5236Z"/><path fill="white" transform="scale(2 2)" d="M236.294 65.9559C236.451 72.9788 236.292 79.5139 236.294 86.5096C236.01 85.2055 235.956 81.8584 235.857 80.2963L235.704 80.1682L235.421 81.6654C235.21 81.7565 234.999 81.8475 234.789 81.9386L234.288 84.4883L234.102 84.5226C233.815 83.7308 234.018 82.9775 234.129 82.1168L233.902 82.1422L233.523 82.9453L233.433 81.0681C232.993 82.5566 232.734 84.2327 232.449 85.7706L232.232 85.7995L232.156 85.7369C232.825 80.5794 234.576 71.0186 236.294 65.9559Z"/><path fill="#E7CFC4" transform="scale(2 2)" d="M233.523 82.9453L233.902 82.1422L234.129 82.1168C234.018 82.9775 233.815 83.7308 234.102 84.5226L234.288 84.4883L234.789 81.9386C234.999 81.8475 235.21 81.7565 235.421 81.6654C235.172 83.3862 234.824 86.8819 233.992 88.2756L233.685 88.2283L233.801 88.4792L234.014 88.1632C233.033 87.2092 233.492 84.3057 233.523 82.9453Z"/><path fill="#E6E613" transform="scale(2 2)" d="M383.018 176.384C387.959 188 387.427 208.144 387.501 220.89C387.518 223.832 388.658 229.44 386.425 230.921C380.029 234.076 377.715 242.773 377.707 249.26L377.7 302.54C372.273 299.17 364.452 292.87 359.266 290.224C359.058 288.236 359.253 284.5 359.256 282.341L359.262 234.589C359.264 215.993 361.377 213.774 371.75 197.742C374.288 191.327 379.656 182.79 383.018 176.384Z"/><path fill="#E0E6C3" transform="scale(2 2)" d="M383.018 176.384C387.959 188 387.427 208.144 387.501 220.89C387.518 223.832 388.658 229.44 386.425 230.921C380.667 221.432 378.086 207.822 371.75 197.742C374.288 191.327 379.656 182.79 383.018 176.384Z"/><path fill="#E6E613" transform="scale(2 2)" d="M128.68 176.384C132.546 182.866 137.354 191.146 140.941 197.742C144.159 202.867 151.433 214.346 153.506 219.684L151.755 221.413L151.785 281.636C151.807 283.8 152.017 287.339 151.755 289.383C147.577 293.09 139.905 297.874 134.986 301.86C134.955 280.898 134.729 259.185 134.986 238.261C132.895 236.778 130.795 235.267 128.68 233.822C127.026 232.797 126.028 232.107 124.486 230.921C124.286 216.712 122.767 187.971 128.68 176.384Z"/><path fill="#9CC7DF" transform="scale(2 2)" d="M128.68 176.384C132.546 182.866 137.354 191.146 140.941 197.742C137.952 207.919 133.202 224.205 128.68 233.822C127.026 232.797 126.028 232.107 124.486 230.921C124.286 216.712 122.767 187.971 128.68 176.384Z"/><path fill="#F3EADE" transform="scale(2 2)" d="M154.437 294.503C169.549 302.953 193.59 315.62 207.026 325.569C200.504 329.731 194.295 334.292 187.708 338.444C185.951 339.614 184.576 340.491 182.738 341.517C169.428 329.633 151.663 317.132 137.216 306.417C141.384 303.08 149.768 297.628 154.437 294.503Z"/><path fill="#F3EADE" transform="scale(2 2)" d="M99.2635 203.581C102.937 197.806 112.628 194.798 118.956 193.536L118.956 227.172C115.872 226.163 113.076 224.509 109.905 223.368C109.75 225.322 109.88 228.645 109.885 230.707L109.898 282.434C109.902 288.772 110.066 295.583 109.905 301.86C109.93 305.075 110.075 309.433 109.905 312.597C108.677 309.341 106.607 306.147 105.673 303.573C99.6476 294.887 99.2399 287.575 99.251 277.797L99.2631 221.627C99.2603 216.047 99.0281 208.989 99.2635 203.581Z"/><path fill="white" transform="scale(2 2)" d="M105.673 303.573L105.929 303.511C106.232 303.999 106.399 304.265 106.638 304.79L106.812 305.178C110.379 299.086 107.438 301.115 109.6 304.982L109.769 304.909C109.711 303.716 109.671 303.025 109.905 301.86C109.93 305.075 110.075 309.433 109.905 312.597C108.677 309.341 106.607 306.147 105.673 303.573Z"/><path fill="#F3EADE" transform="scale(2 2)" d="M393.202 193.536C416.008 197.924 412.968 206.175 412.966 224.31L412.975 279.548C412.996 290.58 413.178 292.423 407.11 302.54C406.805 303.201 402.261 314.183 402.729 309.322C402.731 281.818 402.344 253.325 402.729 225.92C399.421 226.515 396.464 227.264 393.202 228.08C392.715 220.632 392.407 200.675 393.202 193.536Z"/><path fill="white" transform="scale(2 2)" d="M402.729 309.322C403.346 306.675 401.928 300.697 404.297 299.836C406.28 300.103 406.612 300.784 406.661 302.507L406.766 302.413L407.11 302.54C406.805 303.201 402.261 314.183 402.729 309.322Z"/><path fill="#F3EADE" transform="scale(2 2)" d="M356.23 294.503C361.767 297.799 368.554 302.735 374.438 306.417C361.907 316.117 338.839 330.768 328.384 341.517C328.084 341.086 327.023 339.948 326.625 339.497C320.378 334.666 313.219 330.231 306.765 325.569C308.816 324.076 312.058 322.161 314.262 320.767L328.659 311.678C337.514 306.116 347.252 299.591 356.23 294.503Z"/><path fill="#E6E613" transform="scale(2 2)" d="M115.243 231.838C117.839 232.557 126.8 238.555 129.289 240.379L129.289 292.873C126.959 291.604 117.99 283.438 115.243 281.173L115.243 231.838Z"/><path fill="#E6E613" transform="scale(2 2)" d="M396.12 232.542L396.88 232.495L397.164 232.751C397.446 237.962 397.243 244.331 397.242 249.637L397.254 281.173C393.705 282.837 387.259 287.807 383.895 290.224C383.755 290.325 383.438 290.418 383.256 290.483L383.007 290.034C382.851 281.52 382.919 272.717 383.011 264.182C383.15 251.262 379.969 236.231 396.12 232.542Z"/><path fill="#E7CFC4" transform="scale(2 2)" d="M255.375 439.873L270.056 439.873C270.847 443.832 274.985 455.4 276.599 459.413L256.625 459.413L235.421 459.413C237.185 452.894 239.992 446.384 241.9 439.873L255.375 439.873Z"/></svg>