<?xml version="1.0" encoding="utf-8" ?><svg xmlns="http://www.w3.org/2000/svg" xmlns:xlink="http://www.w3.org/1999/xlink" width="1024" height="1024" viewBox="0 0 1024 1024"><path fill="#4A251E" transform="scale(2 2)" d="M231.273 39.5068C246.429 38.829 261.719 39.8093 276.902 39.5214C290.076 39.168 287.276 50.6523 287.259 60.1251C293.101 64.429 299.161 68.4543 305.013 72.7699C313.52 72.9276 326.018 71.7569 333.949 72.7699C339.272 76.9745 349.485 89.8521 354.261 95.2401C359.573 101.233 379.592 121.521 382.012 126.868C383.11 125.188 383.942 123.848 384.687 121.961C392.829 101.328 401.954 81.1231 410.618 60.713C412.381 56.5607 414.352 51.3175 417.121 47.798C418.388 46.6692 425.362 44.1079 427.28 43.4991C431.783 42.07 434.285 39.4981 436.975 44.3805C434.766 52.6436 433.024 60.795 431.046 69.1143L414.129 140.273C412.027 148.994 409.959 156.818 408.418 165.683C413.814 171.587 418.98 177.534 424.223 183.602C429.73 189.976 433.454 191.139 433.459 199.543L433.452 270.3C433.448 284.67 432.535 284.619 427.329 297.076L395.551 372.06C386.757 393.166 388.261 392.207 369.931 407.931L325.538 446.632C305.301 464.496 307.641 466.898 279.875 466.753L239.534 466.763C212.384 466.763 211.681 469.354 189.965 450.048L139.007 405.476C136.634 403.419 125.603 394.206 124.82 392.446C117.156 375.222 107.739 350.781 100.749 333.91L85.5148 297.477C79.5179 283.038 78.7589 284.876 78.7559 269.081L78.7558 216.13C78.7565 212.888 78.3686 195.47 79.4545 194.026C86.2105 185.042 96.4654 173.743 104.757 165.683C100.796 148.527 96.2873 131.134 92.0081 114.032L75.4322 45.3578C73.3046 36.197 94.0592 47.2854 96.1183 49.5239C97.9057 51.4672 109.283 78.9773 111.023 83.0236L129.792 126.104C131.99 124.311 140.224 114.754 142.683 112.003L167.989 83.9925C170.921 80.7635 175.536 75.0981 178.825 72.7699L204.555 72.9102C209.756 72.9881 221.464 63.5296 224.968 60.1251C225.718 53.2785 222.094 42.1627 231.273 39.5068ZM409.558 80.9765L410.023 80.925C413.216 77.2062 417.315 68.2299 417.697 62.8777L417.719 62.598L417.121 62.2237C415.26 66.4815 410.491 76.8669 409.558 80.9765ZM85.7421 60.1251L86.1566 60.2894L86.3685 60.8366L86.3518 60.8328L86.6249 61.2724C87.3787 56.1361 83.3923 60.4601 88.007 53.2281C86.4339 52.297 85.2488 51.4775 83.4571 51.0445C83.8878 52.7161 85.298 58.9379 85.7421 60.1251Z"/><path fill="#DEA98B" transform="scale(2 2)" d="M147.457 239.738C168.799 245.245 193.11 255.31 214.198 262.79C219.027 264.502 223.693 266.143 228.275 268.462C229.221 271.881 235.752 292.517 237.312 292.51C245.166 292.475 268.834 293.946 275.53 292.381C277.509 290.871 283.841 270.057 284.953 266.326C295.538 263.559 306.471 259.808 316.915 256.482L364.228 241.493L364.228 291.207C363.206 295.118 352.374 301.059 348.846 303.429L331.899 315.034C326.6 318.613 321.579 321.735 316.472 325.633C305.649 311.482 294.411 308.303 277.974 308.3L240.552 308.298C223.141 308.301 207.473 309.238 197.196 325.633C194.151 323.954 190.155 321.11 187.269 319.131L174.249 310.286C151.73 295.085 147.432 298.964 147.445 271.132L147.457 239.738Z"/><path fill="#B4B918" transform="scale(2 2)" d="M221.452 159.218L269.266 159.221C299.454 159.225 292.36 155.398 307.548 180.866C304.534 188.101 301.801 196.674 299.327 204.132L276.352 272.581C274.643 276.88 273.033 282.214 271.622 286.676L241.152 286.676C239.206 279.094 234.023 265.984 231.279 258.33L210.336 198.378C208.179 192.302 205.958 186.481 204.245 180.259C208.561 173.754 214.169 161.714 221.452 159.218Z"/><path fill="#4A251E" transform="scale(2 2)" d="M242.369 169.121L282.428 169.121C286.287 174.255 292.413 179.914 295.436 185.277C290.179 200.007 285.367 214.835 280.304 229.627L272.673 252.585C270.98 257.716 268.994 263.299 267.625 268.462C265.006 272.417 249.131 271.201 246.357 269.767C244.567 267.584 217.421 192.141 216.89 185.277C218.558 181.588 226.538 172.413 229.644 169.121L242.369 169.121Z"/><path fill="#DEA98B" transform="scale(2 2)" d="M235.536 175.642L279.875 175.642C282.152 178.876 285.439 183.042 288.694 185.277C280.368 207.181 272.706 231.664 265.524 253.981C264.408 257.593 263.251 260.993 262.003 264.564C258.353 264.513 254.642 264.602 250.959 264.564C246.708 255.322 243.941 245.006 240.503 235.409L229.029 203.059C227.07 197.55 224.818 191.873 223.075 186.321C226.059 182.679 229.175 179.424 232.177 175.642C233.236 175.675 234.461 175.643 235.536 175.642Z"/><path fill="#B4B918" transform="scale(2 2)" d="M420.769 53.2281C423.73 52.0963 425.248 51.3805 428.444 51.0445C427.334 56.0061 426.236 61.1631 424.896 66.0608C420.388 86.7138 415.239 107.453 410.267 128.002L389.653 214.225C388.512 218.904 387.53 223.507 386.059 228.099C365.44 233.528 344.231 241.015 323.887 247.551C312.163 251.318 298.494 255.228 287.259 259.762C291.452 244.874 298.019 225.072 304.152 210.667C322.253 205.711 345.013 197.652 362.639 190.899C374.275 161.386 387.587 131.04 400.051 101.831C401.596 98.2104 403.791 92.1669 405.65 88.927C406.515 86.7079 407.941 82.6647 409.558 80.9765L410.023 80.925C413.216 77.2062 417.315 68.2299 417.697 62.8777L417.719 62.598L417.121 62.2237L420.769 53.2281Z"/><path fill="white" transform="scale(2 2)" d="M420.769 53.2281C423.73 52.0963 425.248 51.3805 428.444 51.0445C427.334 56.0061 426.236 61.1631 424.896 66.0608C424.293 62.4345 425.819 61.7005 419.132 64.6669C416.444 69.4968 409.442 86.9069 405.65 88.927C406.515 86.7079 407.941 82.6647 409.558 80.9765L410.023 80.925C413.216 77.2062 417.315 68.2299 417.697 62.8777L417.719 62.598L417.121 62.2237L420.769 53.2281Z"/><path fill="#B4B918" transform="scale(2 2)" d="M135.83 236.109C138.187 236.442 139.097 237.128 141.12 238.328L141.141 271.765C141.138 281.55 139.284 292.371 147.617 299.697C160.357 310.9 179.584 321.004 193.656 331.723C195.077 335.531 196.475 343.372 197.466 347.631L218.035 435.063C219.793 442.724 222.484 452.755 223.826 460.29C211.224 460.345 208.37 457.74 199.547 449.868L156.824 412.538C156.434 388.621 158.161 362.415 156.824 338.851C150.692 330.679 142.808 322.167 135.83 314.763C136.168 288.912 135.884 262.019 135.83 236.109Z"/><path fill="#4A251E" transform="scale(2 2)" d="M170.076 334.472C172.502 334.968 185.455 348.664 187.967 351.388C190.475 354.107 193.049 357.004 188.265 359.004C184.966 359.64 170.297 342.975 168.197 339.977C166.524 337.589 167.735 335.676 170.076 334.472Z"/><path fill="#4A251E" transform="scale(2 2)" d="M170.076 356.763C173.453 357.003 182.052 367.457 184.825 370.229C187.593 372.995 194.277 377.695 188.265 380.783C184.071 380.512 180.104 374.919 177.343 372.022C173.354 367.748 162.696 360.956 170.076 356.763Z"/><path fill="#4A251E" transform="scale(2 2)" d="M170.076 379.716C174.459 379.315 185.647 392.761 188.703 396.114C191.4 399.072 191.574 400.61 188.265 403.185C185.122 402.756 171.699 388.177 168.592 384.69C167.102 383.018 168.467 380.825 170.076 379.716Z"/><path fill="#B4B918" transform="scale(2 2)" d="M88.007 53.2281C89.3637 53.4396 90.4353 53.6507 91.6679 54.3051C92.3917 56.1699 93.2472 58.2362 93.8475 60.1251C94.9054 61.5672 96.9227 66.3632 97.7399 68.2006L144.393 178.161C145.893 181.762 147.932 187.386 150.051 190.378L150.279 190.705C150.326 190.77 150.373 190.834 150.42 190.899C153.009 192.462 155.544 193.071 158.367 194.057C174.029 199.529 192.82 205.358 207.866 211.617C210.597 217.444 214.121 228.427 216.408 234.828L221.405 249.172C222.698 252.822 224.052 255.989 224.968 259.762C203.649 252.925 182.123 244.357 160.733 237.124C148.527 232.997 140.206 228.513 127.193 229.193C114.838 182.769 103.245 134.913 92.4314 88.0391C89.8849 79.4609 87.7712 68.9511 85.7421 60.1251L86.1566 60.2894L86.3685 60.8366L86.3518 60.8328L86.6249 61.2724C87.3787 56.1361 83.3923 60.4601 88.007 53.2281Z"/><path fill="white" transform="scale(2 2)" d="M88.007 53.2281C89.3637 53.4396 90.4353 53.6507 91.6679 54.3051C92.3917 56.1699 93.2472 58.2362 93.8475 60.1251L93.5307 60.0802C90.3486 64.1817 91.209 71.0397 92.2668 75.6861C92.6483 77.3617 91.4985 81.4717 91.8036 83.2296C92.266 85.893 95.7017 85.8627 92.4314 88.0391C89.8849 79.4609 87.7712 68.9511 85.7421 60.1251L86.1566 60.2894L86.3685 60.8366L86.3518 60.8328L86.6249 61.2724C87.3787 56.1361 83.3923 60.4601 88.007 53.2281Z"/><path fill="#B4B918" transform="scale(2 2)" d="M374.77 238.328C376.955 237.999 375.901 257.411 375.901 260.322L375.899 315.438C350.803 340.937 354.895 331.76 354.893 366.247L354.899 412.538C342.658 421.847 330.313 434.65 318.176 444.806C308.347 453.031 303.835 460.067 290.236 460.29C289.606 460.429 289.911 460.466 289.308 460.29C288.969 458.363 298.55 419.456 299.798 414.205L316.28 344.361C317.076 341.026 318.334 334.773 319.382 331.723C322.431 329.07 327.444 325.945 330.94 323.542L355.549 306.798C372.72 295.043 370.525 297.487 370.526 276.877L370.511 239.738C371.929 239.189 373.275 238.602 374.77 238.328Z"/><path fill="#4A251E" transform="scale(2 2)" d="M341.804 378.488C344.004 378.906 346.217 380.206 345.52 382.794C345.089 384.394 327.894 402.262 326.071 403.185C324.224 403.023 320.925 401.729 321.83 399.267C322.572 397.25 338.701 380.044 341.804 378.488Z"/><path fill="#4A251E" transform="scale(2 2)" d="M341.804 334.472C356.066 333.914 326.89 357.99 326.071 358.411C320.08 357.004 322.699 352.529 325.891 349.88C329.349 347.012 338.449 335.526 341.804 334.472Z"/><path fill="#4A251E" transform="scale(2 2)" d="M341.804 355.562C355.982 355.056 327.636 379.101 326.494 379.716C313.433 379.3 340.543 356.345 341.804 355.562Z"/><path fill="#E61D1D" transform="scale(2 2)" d="M181.192 79.1674C189.283 79.2858 197.596 79.1789 205.704 79.1674L205.688 114.571C205.669 139.022 205.636 131.932 216.89 154.045C211.105 156.467 207.271 162.69 204.245 168.128L168.625 168.128L147.457 168.128C145.234 164.116 142.875 157.796 141.039 153.384L132.489 133.23C134.182 130.606 138.21 126.507 140.43 124.017L172.734 88.2218C175.112 85.5865 178.654 81.4389 181.192 79.1674Z"/><path fill="#E61D1D" transform="scale(2 2)" d="M306.727 79.1674C314.584 79.1705 323.842 78.9008 331.6 79.1674C334.793 83.0087 338.519 87.0245 341.846 90.7953L370.698 123.041C373.681 126.4 377.256 129.891 380.004 133.23C375.307 143.814 370.924 154.959 366.381 165.683C366.073 166.478 365.686 167.336 365.349 168.128L307.548 168.128C304.282 162.199 302.011 156.199 295.436 154.045C304.212 130.755 306.747 143.267 306.739 114.945L306.727 79.1674Z"/><path fill="#E61D1D" transform="scale(2 2)" d="M209.425 321.802C211.83 323.987 218.863 352.092 222.87 358.444C227.636 365.998 234.127 365.376 241.653 365.346L269.693 365.341C286.745 365.502 289.099 363.235 294.583 347.306L298.617 335.543C300.268 330.605 301.268 326.094 304.152 321.802C306.415 324.972 309.859 327.914 312.642 331.723C306.335 352.435 302.719 375.403 296.89 396.551C295.451 404.551 293.077 414.276 290.981 422.063C283.488 419.212 284.238 420.028 280.244 413.133L274.351 403.081C273.117 400.963 271.869 398.458 270.369 396.551C267.58 396.407 263.705 396.53 260.83 396.53L242.369 396.551C232.443 407.216 236.348 415.812 221.452 422.063C217.45 403.636 212.908 384.518 208.408 366.186L204.083 347.871C202.873 342.861 201.081 336.755 200.816 331.723C202.642 327.903 206.12 324.381 209.425 321.802Z"/><path fill="#B4B918" transform="scale(2 2)" d="M231.273 45.9983C247.69 45.9171 264.735 46.2875 281.058 45.9983C281.243 48.7276 281.074 52.1942 281.067 54.9992L281.058 130.267L231.273 130.267L231.274 73.569C231.274 65.2562 230.907 54.0544 231.273 45.9983Z"/><path fill="#E61D1D" transform="scale(2 2)" d="M406.461 172.938C412.687 179.746 422.192 189.611 427.238 197.272L427.259 268.344C427.265 271.285 427.561 278.368 426.693 280.873C417.965 306.082 404.994 330.478 396.053 355.562C394.609 358.543 393.552 360.535 392.253 363.614L392.253 310.064L392.589 309.846C413.684 295.964 409.643 236.967 409.444 215.101C409.388 208.981 404.364 205.263 398.886 204.17C400.528 195.512 403.671 181.07 406.461 172.938Z"/><path fill="#E61D1D" transform="scale(2 2)" d="M228.275 314.763L268.14 314.762C276.653 314.755 290.816 313.43 297.862 318.216C295.299 325.039 287.217 352.942 282.428 356.763C277.806 360.976 243.141 359.032 235.299 358.959C225.661 359.494 217.974 326.375 215.306 318.216C219.639 316.038 223.499 315.173 228.275 314.763Z"/><path fill="#E61D1D" transform="scale(2 2)" d="M106.359 172.938C109.513 181.009 111.703 194.558 113.894 203.273C105.462 205.291 101.502 208.698 101.46 217.858C101.728 249.243 95.9716 286.345 119.47 310.064C119.188 314.645 119.457 322.788 119.461 327.549L119.47 363.614C118.507 361.32 117.723 359.101 116.89 356.763C114.752 352.301 113.167 348.038 111.327 343.468L102.095 320.894C95.1137 304.214 84.9506 286.805 84.9626 268.752L84.9737 197.272C86.2468 195.022 104.05 174.836 106.359 172.938Z"/><path fill="#BE7D68" transform="scale(2 2)" d="M287.259 68.5698C290.793 69.5835 296.867 74.7621 300.47 77.1731L300.477 110.741C300.476 125.163 302.26 127.027 295.678 139.5L288.694 152.808L223.826 152.808C220.435 146.377 214.562 137.868 212.405 131.407C211.263 127.986 211.897 103.751 211.904 98.5207L211.904 78.0842C214.244 76.0001 222.155 70.5154 224.968 68.5698L224.96 109.824C224.96 114.226 224.304 131.946 226.195 135.145C230.804 137.481 285.112 135.863 286.252 135.097C288.027 133.904 287.263 112.47 287.263 109.689L287.259 68.5698Z"/><path fill="#E61D1D" transform="scale(2 2)" d="M245.461 403.185L266.667 403.185C274.582 415.549 275.147 424.342 290.236 428.175C287.52 434.002 283.896 452.833 282.428 460.29L267.625 460.29L230.513 460.29C228.254 449.503 225.354 438.913 223.075 428.175C237.398 424.088 238.026 415.645 245.461 403.185Z"/><path fill="#E61D1D" transform="scale(2 2)" d="M386.059 314.202C386.254 316.339 386.067 322.488 386.067 324.988L386.068 368.413C386.069 370.441 386.273 378.135 385.832 379.529C382.475 390.147 369.615 400.132 361.164 407.052L361.166 362.262C361.167 356.306 360.82 346.605 361.164 340.91C364.375 335.766 381.319 318.287 386.059 314.202Z"/><path fill="#E61D1D" transform="scale(2 2)" d="M125.832 314.202C128.521 315.361 147.209 337.151 150.42 340.91L150.42 407.052L137.867 396.356C127.676 387.655 125.748 385.167 125.806 370.444L125.842 357.282C125.846 343.145 125.584 328.291 125.832 314.202Z"/><path fill="#E61D1D" transform="scale(2 2)" d="M150.42 174.244L200.816 174.244C199.594 176.13 198.129 178.244 197.196 180.259C199.354 187.503 202.633 194.037 204.245 201.696C204.813 202.326 205.288 203.383 205.704 204.17C198.493 201.849 191.039 199.007 183.867 196.457L154.959 186.321C153.541 183.504 150.715 177.217 150.42 174.244Z"/><path fill="#E61D1D" transform="scale(2 2)" d="M311.559 174.244L362.639 174.244C361.07 178.192 359.165 182.395 357.473 186.321C353.807 187.028 346.969 189.58 343.19 190.899C331.529 194.973 318.434 199.788 306.727 203.273C307.816 197.451 312.146 186.186 314.304 180.259C313.444 177.917 312.686 176.453 311.559 174.244Z"/><path fill="#B4B918" transform="scale(2 2)" d="M115.005 209.31C116.184 210.438 120.882 232.117 121.287 234.997C123.959 235.081 127.085 235.002 129.792 234.997L129.792 251.961L122.375 251.961L107.509 251.961C107.504 246.093 106.773 217.146 108.415 213.42C109.48 211.004 112.734 210.122 115.005 209.31Z"/><path fill="#B4B918" transform="scale(2 2)" d="M397.121 210.667C405.761 210.364 403.291 219.444 403.287 226.04L403.27 250.889C399.217 251.383 391.279 252.835 387.447 253.981C385.558 254.256 383.885 254.544 382.012 254.911C381.906 248.757 382.01 242.289 382.012 236.109C385.798 235.05 388.544 234.741 392.253 233.892C392.913 228.291 395.052 215.793 397.121 210.667Z"/><path fill="#BE7D68" transform="scale(2 2)" d="M107.509 258.29C109.859 258.202 112.625 258.281 115.005 258.29C116.008 274.299 118.891 289.273 129.792 301.904C129.709 304.122 129.743 306.103 129.792 308.312C110.944 299.071 108.475 277.034 107.509 258.29Z"/><path fill="#BE7D68" transform="scale(2 2)" d="M402.28 257.594C402.89 258.129 402.254 263.695 402.15 264.632C400.333 281.071 400.507 301.548 382.012 308.312C381.88 305.742 382.24 302.797 382.012 299.287C394.665 289.599 395.834 273.192 396.053 258.29C398.803 258.135 399.54 258.179 402.28 257.594Z"/><path fill="#B4B918" transform="scale(2 2)" d="M121.287 258.29L129.792 258.29L129.792 291.207C125.515 290.551 121.27 263.202 121.287 258.29Z"/><path fill="#B4B918" transform="scale(2 2)" d="M389.324 259.762L389.584 259.768L389.754 260.075C388.6 270.028 387.968 282.17 382.012 290.366L381.941 290.38C381.978 290.42 382.014 263.679 382.012 261.174C384.712 260.765 386.686 260.365 389.324 259.762Z"/></svg>